<?xml version="1.0" standalone="no"?><!DOCTYPE svg PUBLIC "-//W3C//DTD SVG 1.1//EN" "http://www.w3.org/Graphics/SVG/1.1/DTD/svg11.dtd"><svg t="1773472742292" class="icon" viewBox="0 0 1024 1024" version="1.1" xmlns="http://www.w3.org/2000/svg" p-id="3935" xmlns:xlink="http://www.w3.org/1999/xlink" width="200" height="200"><path d="M480 414.528c19.328 0 37.888 7.872 51.52 21.76 13.696 13.952 21.376 32.832 21.312 52.544-0.064 14.08-4.352 27.904-12.224 39.488l-4.8 6.592 201.536 434.176c7.04 15.04 3.776 33.024-8.128 44.48a37.12 37.12 0 0 1-44.032 5.632l-5.376-3.648-199.488-161.344-191.232 155.136a37.12 37.12 0 0 1-44.16 2.176 38.72 38.72 0 0 1-15.808-42.048l2.24-6.208 193.152-427.776a73.536 73.536 0 0 1 55.424-120.896z m87.68 368.768l-26.88 21.76 59.264 47.936-32.384-69.76z m-172.8 1.792l-28.8 63.68 53.632-43.52-24.896-20.16zM480 0C744.64 0 960 219.328 960 488.832a494.272 494.272 0 0 1-114.24 316.096 37.12 37.12 0 0 1-53.12 4.352 38.912 38.912 0 0 1-4.352-54.08 416.384 416.384 0 0 0 96.192-266.368C884.288 261.376 703.296 77.056 480 76.8c-223.36 0.256-404.352 184.576-404.608 412.032A416.64 416.64 0 0 0 171.584 755.2a38.976 38.976 0 0 1 6.784 37.76 37.312 37.312 0 1 1-64.256 11.968A494.528 494.528 0 0 1 0 488.832C0 219.328 215.296 0 480 0z m0.448 595.328l-53.184 117.76 52.992 42.88 54.336-43.968-54.144-116.672zM480 202.752c155.008 0.128 280.64 128.128 280.832 286.08 0 60.8-19.2 119.424-55.488 169.472a37.312 37.312 0 0 1-51.584 6.336 38.912 38.912 0 0 1-8.96-52.096 209.92 209.92 0 0 0 40.64-123.712c-0.128-115.52-92.032-209.088-205.44-209.28-113.408 0.192-205.312 93.824-205.44 209.28 0 44.288 14.08 87.04 40.576 123.776a38.976 38.976 0 0 1 5.44 38.912 37.44 37.44 0 1 1-65.92 6.72 287.104 287.104 0 0 1-55.552-169.344C199.296 331.008 324.928 203.008 480 202.88v-0.064z" p-id="3936"></path></svg>