<?xml version="1.0" standalone="no"?><!DOCTYPE svg PUBLIC "-//W3C//DTD SVG 1.1//EN" "http://www.w3.org/Graphics/SVG/1.1/DTD/svg11.dtd"><svg t="1773418655310" class="icon" viewBox="0 0 1024 1024" version="1.1" xmlns="http://www.w3.org/2000/svg" p-id="6554" xmlns:xlink="http://www.w3.org/1999/xlink" width="200" height="200"><path d="M279.5008 732.5696l-3.0208 5.12c-6.0928-1.4336-12.8512-1.6384-18.0224-4.608-8.0384-4.608-14.7456-11.3664-22.2208-16.7936-28.16-20.48-56.2176-41.216-84.992-60.7744a45.0048 45.0048 0 0 0-24.0128-6.656c-11.008 0-17.4592 11.264-13.0048 21.504a38.3488 38.3488 0 0 0 11.9808 16.2816c23.6032 16.0256 48.2816 30.6176 71.8336 46.6944 13.9776 9.5744 26.88 20.7872 39.68 31.8976 2.2016 1.9456 1.6896 7.0144 2.4064 10.5984-4.096 0.512-8.8064 2.7136-12.1344 1.3824-7.8848-3.1744-15.0016-8.2432-22.528-12.1344-26.2144-13.4656-52.224-27.136-78.6944-40.0896-8.8064-4.4032-16.384-0.768-22.6816 6.6048-6.8608 7.9872-2.304 15.1552 1.8944 21.248a47.5136 47.5136 0 0 0 15.5136 13.4144c9.3696 5.376 19.5584 9.3184 29.4912 13.7728l50.9952 22.5792c7.0656 3.072 13.6192 7.68 9.1648 15.5136-1.5872 2.7648-11.6736 3.072-16.4352 1.0752-14.336-5.9392-27.648-14.6432-42.0864-20.2752a128 128 0 0 0-37.7856-9.2672c-11.8784-0.7168-17.3056 12.288-8.96 20.7872 9.216 9.2672 19.2 18.7392 30.72 24.576 48.64 24.6272 100.6592 40.4992 154.5216 46.7968 30.3616 3.584 61.8496 4.7104 92.16-7.7824 42.5984-17.5616 79.2064-82.0224 34.304-127.3856-31.5904-32-58.624-68.3008-73.3184-112.0256a51.2 51.2 0 0 0-7.68-14.3872c-10.496-13.7728-22.9376-12.544-30.9248 2.56-11.5712 21.9648-8.3968 38.0928 9.1648 59.3408 6.4 7.7824 15.36 13.6704 20.736 22.016 2.9696 5.888 3.072 12.8 0.3584 18.7904-1.8944 3.4816-12.1856 5.8368-16.1792 3.7888a56.1664 56.1664 0 0 1-19.9168-17.8688c-18.944-28.2624-35.84-57.9584-55.4496-85.76a77.7728 77.7728 0 0 0-30.1056-24.6784c-15.8208-7.2704-26.4704 1.4336-24.1664 18.7904 1.4848 9.8304 5.632 19.0464 11.9296 26.6752 19.2 22.4256 40.0896 43.4688 59.904 65.4336 6.5024 7.168 11.776 15.4112 17.5616 23.2448z m421.2224 152.576c24.2176-3.6864 51.3536-5.7856 77.4144-12.288 41.1136-10.3936 82.5344-21.248 118.3744-45.7728 18.0736-12.3392 23.296-21.0432 18.3296-30.976-4.7616-9.2672-20.48-10.1376-38.2976-1.4848-14.6944 7.1168-29.0304 15.0528-43.776 22.016-7.3728 3.4816-17.3568 10.9056-22.6304 1.0752-5.8368-10.6496 6.4-14.1312 13.6192-17.408 16.9472-7.68 34.56-13.6704 51.4048-21.504 11.9296-5.4784 23.6544-11.8784 34.304-19.5584 8.0896-5.9392 15.0016-15.1552 8.704-26.0608-5.8368-9.984-15.2064-12.544-26.2656-7.2192-7.68 3.6352-16.1792 5.7344-23.6032 9.7792-23.808 12.9536-47.2576 26.6752-71.168 39.5776-4.096 2.1504-9.7792 1.28-14.7968 1.8944 0.512-5.7344-0.1024-12.032 1.9968-17.1008 1.5872-3.6864 6.656-6.2464 10.5472-8.704 14.4896-9.0112 29.44-17.2544 43.52-26.88 21.1456-14.2336 41.9328-28.9792 62.208-44.3392a17.2544 17.2544 0 0 0 3.3792-25.088c-4.096-4.8128-14.848-4.608-22.784-5.2224-3.328-0.3584-7.2704 2.56-10.3936 4.7104-27.2896 19.0976-54.528 38.144-81.5104 57.6-10.6496 7.68-20.3776 16.64-31.3344 23.9616-2.8672 1.8944-8.6528-0.512-13.056-0.9216 0.4608-4.1984-0.2048-8.96 1.5872-12.4928 2.048-3.9936 6.2976-6.8096 9.472-10.24 20.1216-21.6576 40.8576-42.8032 59.9552-65.28 7.2704-8.5504 12.4416-19.8144 15.2576-30.7712 3.3792-12.9024-2.7136-19.712-15.8208-19.2a36.0448 36.0448 0 0 0-20.8384 7.1168 138.752 138.752 0 0 0-24.576 27.7504c-15.9744 23.808-30.4128 48.64-46.2848 72.5504a71.3728 71.3728 0 0 1-20.3776 21.1456c-4.096 2.56-15.0016 0.6144-18.0736-3.2256s-1.8944-13.312 0.6656-18.688c2.9184-6.0416 8.96-10.752 14.4384-15.2064a51.0976 51.0976 0 0 0 19.2-47.5136c-1.28-13.0048-9.3696-28.8256-18.432-29.2864-13.824-0.6144-19.456 9.8816-24.2688 20.992-16.384 37.9904-35.584 73.984-65.9456 103.424-14.2336 14.0288-26.2144 31.1296-27.4944 52.48-2.56 43.1104 25.344 79.7696 68.4544 89.4464 15.0016 3.328 30.464 4.4032 48.896 6.912z m156.416-316.672c2.6624-32.4096 6.656-61.5424 6.8096-90.7264 0.1024-17.408-5.5296-34.8672-8.704-52.2752A335.0016 335.0016 0 0 0 727.04 215.2448c-63.2832-48.7936-135.0144-80.896-218.7776-73.216-18.5856 1.7408-38.0416-2.304-56.064 1.1264-86.4256 16.5376-160.256 54.9376-217.2928 124.0576C180.736 332.8 155.8016 408.7296 152.7808 492.032c-0.9728 26.112 5.8368 52.48 9.5744 82.2784 18.2784-19.3536 38.7584-23.9616 58.368-18.432 14.7456 4.2496 28.0064 15.872 40.192 26.2656 8.96 7.5264 14.08 11.52 24.7296 1.6384a48.4352 48.4352 0 0 1 42.4448-12.1856c27.648 4.096 44.032 21.9136 52.5312 44.3392 15.4624 40.96 41.4208 74.24 68.864 106.9568 24.9344 29.6448 37.376 62.1056 25.9072 100.864-1.0752 3.7376-3.84 7.4752-3.4304 10.9056 0.4096 3.584 3.84 9.728 5.9392 9.8304 20.224 0.4608 40.5504 0.6656 60.672-0.9728 7.9872-0.6144 13.6704-5.7344 8.1408-16.64a61.0304 61.0304 0 0 1-5.376-24.6272c-1.536-35.5328 12.8-65.28 37.12-89.7024a277.504 277.504 0 0 0 53.9136-78.1824c4.3008-9.1136 6.7584-19.3024 11.9808-27.6992 21.504-34.4064 59.5456-49.408 89.9072-23.8592 13.6704 11.52 19.0464 5.888 28.0064-3.0208 28.9792-28.7744 54.528-32.512 94.8736-11.3664z m48.64-76.1856c-5.2224 32.9728-9.5744 66.0992-16.128 98.8672-2.4064 12.1856 0 15.872 11.776 18.8928 36.864 9.5232 52.8384 37.7856 43.1616 74.4448-2.048 7.8848-2.8672 14.0288 3.072 21.2992 13.4144 16.4352 13.6192 35.3792 8.2432 55.3472a48.64 48.64 0 0 0-0.256 24.32c5.9392 21.9136 1.792 41.8304-14.6944 55.6544-17.7664 14.9504-37.376 27.648-58.2656 37.7344a456.192 456.192 0 0 1-182.784 44.032c-41.728 1.3312-82.2784-5.888-116.0704-34.56a34.7136 34.7136 0 0 0-20.6848-6.656 3055.9744 3055.9744 0 0 0-105.2672 0.6656c-7.168 0.1024-16.384 1.1264-21.1968 5.4784-33.3312 29.8496-74.24 36.5056-115.8656 35.0208a474.112 474.112 0 0 1-203.8784-53.76 156.416 156.416 0 0 1-32.768-22.1696c-18.6368-16.896-26.5728-37.6832-18.3808-63.2832a33.28 33.28 0 0 0-0.4608-19.8144c-7.5264-21.504-5.632-40.8064 7.68-59.648 3.328-4.7104 3.9424-13.0048 2.56-18.944-8.704-36.2496 5.2736-63.3344 40.8576-74.4448 11.1104-3.5328 12.288-7.6288 9.4208-18.2272a382.4128 382.4128 0 0 1-11.776-143.7184c20.8896-185.2416 167.3216-327.5264 342.784-347.392 156.672-17.664 283.5456 39.3728 376.4224 166.0928 48.128 65.7408 70.6048 141.9776 72.4992 224.768z" fill="#FEAC06" p-id="6555"></path><path d="M780.1344 408.576c-0.3072-15.5136-16.2304-32.0512-30.8224-32.0512-17.92 0.1536-35.0208 16.5376-34.7648 33.4848 1.1776 17.5616 15.36 31.4368 32.9728 32.2048 20.9408 0 33.1264-12.5952 32.6144-33.6896z m-507.2384 33.6384c15.9744 0.3072 33.1264-15.9232 33.792-32 0.6144-16.6912-17.0496-33.6896-35.072-33.5872-17.8688 0-29.7472 12.288-30.464 31.0784-0.8192 21.248 11.008 34.048 31.744 34.5088z m51.8144-63.4368c0.4608 12.9024 6.2464 25.088 16.0256 33.536 11.2128 9.728 18.7392 10.1888 26.88-2.3552 9.3184-14.592 19.5072-17.6128 35.1232-10.752 11.4688 4.9664 18.6368 0 21.76-12.8 5.0688-20.48-1.3312-37.2736-16.1792-50.2272-16.0256-14.08-35.328-15.9744-54.5792-7.5776-18.688 8.1408-28.7744 23.04-29.0304 50.176z m306.688-54.3744c-34.048-0.1024-59.6992 31.5904-50.688 62.5664 3.9936 13.9776 8.6016 17.8688 21.504 12.288 16.0256-6.9632 25.9584-2.56 35.6864 10.6496 8.8576 12.1344 15.1552 11.776 26.7264 2.1504 14.9504-13.312 20.48-34.2016 14.2336-53.1968-7.68-22.272-24.4224-34.4064-47.36-34.4576m-203.008 290.6624c34.048 28.6208 73.728 29.0816 113.7664 19.712 14.848-3.4304 27.8016-15.0528 41.6256-22.9888 37.888-25.088 49.92-64 54.1184-105.984 1.536-14.7456-6.4-19.456-21.0432-13.9264-15.3088 5.7344-29.8496 13.312-44.8 20.0192-42.6496 19.2-85.5552 21.76-128.9216 1.9968-15.5136-7.0656-30.8736-14.7456-46.6944-21.2992-17.92-7.424-25.3952-2.56-23.8592 16.896 3.328 42.9056 18.944 80.0256 55.808 105.5744z m428.544-46.6944c-40.3456-21.0944-65.8944-17.408-94.8736 11.4176-8.96 8.96-14.336 14.4896-27.9552 3.072-30.4128-25.6-68.4032-10.5984-89.9072 23.808-5.2736 8.3968-7.68 18.5856-11.9808 27.7504a276.1216 276.1216 0 0 1-54.016 78.1312c-24.2176 24.4224-38.6048 54.2208-37.0688 89.7024 0.4096 8.3456 1.6896 17.408 5.376 24.7296 5.5808 10.752-0.1024 15.9744-8.1408 16.64-20.1728 1.3312-40.448 1.6384-60.672 0.8704-2.1504 0-5.4784-6.144-5.9392-9.728-0.4608-3.4816 2.3552-7.2704 3.4816-11.008 11.4176-38.7584-1.024-71.168-25.9584-100.864-27.4944-32.6144-53.3504-65.8944-68.864-106.9056-8.448-22.4256-24.832-40.2944-52.5312-44.3904a48.4352 48.4352 0 0 0-42.4448 12.1856c-10.6496 9.984-15.7184 5.888-24.6784-1.6896-12.1856-10.24-25.4976-22.016-40.192-26.112-19.6096-5.632-40.1408-1.024-58.4192 18.3296-3.7376-29.7472-10.496-56.1152-9.6256-82.2272 3.072-83.456 28.1088-159.232 82.2272-224.9216 57.0368-69.12 130.9696-107.52 217.2928-124.0064 18.0736-3.4816 37.4272 0.512 56.064-1.1776 83.8656-7.68 155.5456 24.4736 218.8288 73.216a335.0016 335.0016 0 0 1 128.1024 210.2272c3.2256 17.408 8.8576 34.9184 8.704 52.3264-0.1536 29.184-4.096 58.2656-6.7584 90.624" fill="#FED11E" p-id="6556"></path><path d="M700.7232 885.0944c-18.432-2.56-33.8944-3.584-48.896-6.912-43.1104-9.5744-71.0144-46.336-68.4544-89.3952 1.28-21.3504 13.2608-38.4512 27.4944-52.48 30.3616-29.44 49.5616-65.4848 65.9456-103.424 4.864-11.1104 10.496-21.7088 24.2688-20.992 9.0624 0.4608 17.152 16.2816 18.432 29.2352a51.0464 51.0464 0 0 1-19.2 47.616c-5.376 4.4544-11.52 9.1136-14.4384 15.104-2.56 5.4784-3.7376 14.9504-0.6656 18.688 3.072 3.84 13.9776 5.8368 18.0736 3.2768 8.1408-5.0688 15.0016-13.056 20.3776-21.1968 15.872-23.8592 30.3104-48.64 46.336-72.4992 6.8608-10.24 15.2064-19.8144 24.5248-27.7504a36.0448 36.0448 0 0 1 20.8384-7.168c13.1072-0.512 19.2 6.2976 15.8208 19.2512a79.2064 79.2064 0 0 1-15.2576 30.72c-19.0976 22.528-39.8336 43.6224-59.9552 65.28-3.1744 3.4304-7.424 6.2464-9.472 10.24-1.792 3.584-1.1264 8.2944-1.5872 12.544 4.4544 0.4608 10.24 2.816 13.056 0.8704 10.9568-7.168 20.6848-16.2816 31.3344-23.9616 26.9824-19.456 54.2208-38.5024 81.5104-57.5488 3.072-2.2016 7.0144-5.0688 10.3936-4.7616 7.936 0.6656 18.5856 0.512 22.784 5.2736a17.2544 17.2544 0 0 1-3.3792 25.088c-20.2752 15.36-41.0624 30.0544-62.208 44.3904-14.08 9.5744-29.0304 17.8176-43.52 26.8288-3.8912 2.4576-8.96 5.0176-10.5472 8.704-2.0992 5.0688-1.4848 11.3152-1.9968 17.0496 5.0176-0.512 10.7008 0.3072 14.7968-1.9456 23.9104-12.8 47.36-26.5728 71.168-39.4752 7.424-4.096 15.9232-6.144 23.552-9.7792 11.1104-5.3248 20.48-2.7648 26.2144 7.168 6.4 10.9056-0.512 20.1216-8.6016 26.112-10.5984 7.68-22.4256 14.08-34.304 19.5584-16.896 7.8336-34.4576 13.8752-51.4048 21.504-7.2192 3.2256-19.456 6.7072-13.6192 17.408 5.2736 9.7792 15.36 2.3552 22.6304-1.0752 14.7456-7.0656 29.0816-14.8992 43.776-22.016 17.8176-8.6528 33.536-7.8336 38.2976 1.4848 4.9664 9.8816-0.256 18.5856-18.3296 30.976-35.84 24.4736-77.2608 35.328-118.3744 45.7216-26.112 6.656-53.248 8.704-77.4656 12.288m-421.1712-152.576c-5.7856-7.7824-11.0592-16.0256-17.5616-23.1936-19.8144-22.016-40.6016-43.008-59.904-65.4336a54.4256 54.4256 0 0 1-11.9296-26.6752c-2.304-17.3056 8.2944-26.0608 24.064-18.8416 11.5712 5.2736 22.8864 14.336 30.1056 24.6784 19.6608 27.8016 36.608 57.4976 55.552 85.8112 4.864 7.2704 12.1856 13.824 19.9168 17.8688 3.9936 2.048 14.2848-0.3584 16.1792-3.7888a21.6576 21.6576 0 0 0-0.3584-18.7392c-5.3248-8.3456-14.336-14.336-20.736-22.1184-17.5616-21.248-20.736-37.376-9.1648-59.2896 7.9872-15.104 20.48-16.384 30.9248-2.56a51.2 51.2 0 0 1 7.68 14.336c14.6944 43.776 41.728 79.9744 73.3184 111.9744 44.8 45.4656 8.2944 109.8752-34.3552 127.488-30.2592 12.4928-61.7472 11.3152-92.1088 7.7312a459.7248 459.7248 0 0 1-154.5216-46.6944c-11.52-5.888-21.504-15.36-30.72-24.6272-8.3456-8.448-2.9184-21.504 8.96-20.8384a128 128 0 0 1 37.7344 9.3184c14.5408 5.632 27.8016 14.336 42.1376 20.2752 4.7616 1.8944 14.848 1.6384 16.384-1.0752 4.5056-7.8336-2.048-12.4416-9.1136-15.5136l-50.9952-22.5792c-9.9328-4.5056-20.1216-8.3968-29.4912-13.7216a47.4624 47.4624 0 0 1-15.5136-13.4656c-4.1984-6.144-8.7552-13.312-1.8944-21.248 6.4-7.3728 13.824-11.008 22.6816-6.656 26.4704 13.056 52.48 26.624 78.6944 40.0896 7.5264 3.9424 14.6432 8.96 22.528 12.1856 3.328 1.28 8.0384-0.8192 12.1344-1.4336-0.7168-3.584-0.2048-8.6016-2.4064-10.5472-12.8-11.1104-25.7024-22.3744-39.68-31.9488-23.552-16.0256-48.2304-30.5664-71.8336-46.592a38.3488 38.3488 0 0 1-11.9808-16.2816c-4.4544-10.24 1.9968-21.504 13.0048-21.504a44.544 44.544 0 0 1 24.0128 6.5536c28.7744 19.6096 56.832 40.3456 84.992 60.8256 7.5264 5.4272 14.1824 12.1344 22.2208 16.8448 5.12 2.9184 11.9296 3.072 18.0224 4.5056l3.0208-5.12z" fill="#FED11E" p-id="6557"></path><path d="M428.544 615.0144c-36.864-25.4976-52.48-62.6176-55.808-105.472-1.536-19.5072 6.0416-24.32 23.8592-16.9472 15.872 6.5536 31.232 14.1824 46.7456 21.2992 43.3152 19.8144 86.272 17.2032 128.9728-1.9968 14.848-6.7072 29.44-14.336 44.8-20.0192 14.592-5.5296 22.528-0.768 20.992 13.8752-4.3008 42.0352-16.2816 80.896-54.1696 106.0352-9.728-10.5984-18.0224-23.04-29.3888-31.5392-16.896-12.8-22.528-10.8544-35.9936 6.144-10.3936 13.0048-10.3936 13.0048-20.992-0.768-11.9296-15.4624-20.992-18.2784-36.608-5.9904-12.4416 9.728-21.76 23.4496-32.4096 35.4304" fill="#3E3D44" p-id="6558"></path><path d="M428.544 615.0656c10.7008-11.9296 19.968-25.6 32.4096-35.4304 15.6672-12.288 24.6784-9.472 36.608 6.0416 10.5984 13.7728 10.5984 13.7728 20.992 0.768 13.4144-17.0496 19.0976-18.9952 35.9936-6.144 11.3664 8.5504 19.6608 20.9408 29.3888 31.5392-13.824 7.936-26.7264 19.5072-41.5744 23.04-40.0384 9.2672-79.7696 8.8576-113.8176-19.8144z" fill="#E94F4D" p-id="6559"></path><path d="M631.4496 324.5056c23.04 0 39.68 12.1856 47.36 34.4576 6.4 18.5856 0.512 40.96-14.1312 53.1456-11.6224 9.728-17.92 9.9328-26.7776-2.1504-9.728-13.2096-19.6608-17.6128-35.6864-10.6496-12.9024 5.632-17.5104 1.6896-21.504-12.288-8.96-31.0272 16.6912-62.72 50.688-62.5664m-306.688 54.3744c0.3072-27.136 10.24-41.984 29.0304-50.176 19.2512-8.2944 38.656-6.4512 54.5792 7.5776 14.7968 13.0048 21.248 29.7472 16.2304 50.2272-3.1744 12.8-10.3424 17.8176-21.76 12.8-15.616-6.7584-25.8048-3.84-35.2256 10.752-8.0384 12.544-15.5648 12.0832-26.88 2.3552a46.3872 46.3872 0 0 1-15.9232-33.536z" fill="#3E3D44" p-id="6560"></path><path d="M272.896 442.2656c-20.736-0.512-32.5632-13.312-31.744-34.5088 0.6144-18.8416 12.5952-31.0272 30.464-31.1296 18.0224 0 35.6352 16.896 35.072 33.6896-0.6656 15.9744-17.8176 32.256-33.792 31.9488z m507.2384-33.6896c0.512 21.1456-11.6736 33.5872-32.6144 33.6896a34.56 34.56 0 0 1-32.9728-32.256c-0.256-16.896 16.8448-33.28 34.7648-33.3824 14.592 0 30.5152 16.4864 30.8224 31.9488z" fill="#FEAC06" p-id="6561"></path></svg>